<?xml version="1.0" encoding="iso-8859-1"?>
<!-- Generator: Adobe Illustrator 19.2.1, SVG Export Plug-In . SVG Version: 6.00 Build 0)  -->
<svg version="1.1" xmlns="http://www.w3.org/2000/svg" xmlns:xlink="http://www.w3.org/1999/xlink" x="0px" y="0px"
	 viewBox="0 0 32.135 32.134" style="enable-background:new 0 0 32.135 32.134;" xml:space="preserve">
<g id="Layer_21">
	<path style="fill:#95CC29;" d="M18,2c3.31,0,6.304,1.344,8.481,3.519C28.656,7.696,30,10.69,30,14c0,0.552,0.448,1,1,1
		c0.552,0,1-0.448,1-1C31.998,6.278,25.722,0.002,18,0c-0.552,0-1,0.448-1,1C17,1.552,17.448,2,18,2L18,2z"/>
	<path style="fill:#95CC29;" d="M18,6c2.207,0,4.202,0.895,5.654,2.346C25.105,9.798,26,11.793,26,14c0,0.552,0.448,1,1,1
		c0.552,0,1-0.448,1-1c-0.002-5.517-4.483-9.998-10-10c-0.552,0-1,0.448-1,1C17,5.552,17.448,6,18,6L18,6z"/>
	<path style="fill:#95CC29;" d="M18,10c2.203,0.004,3.996,1.796,4,4c0,0.552,0.448,1,1,1c0.552,0,1-0.448,1-1
		c-0.002-3.312-2.689-5.998-6-6c-0.552,0-1,0.448-1,1C17,9.552,17.448,10,18,10L18,10z"/>
	<path style="fill:#666666;" d="M25.599,17.849c-0.583-0.584-1.357-0.88-2.121-0.879c-0.764-0.001-1.538,0.295-2.121,0.879
		l-1.414,1.414c-0.198,0.197-0.448,0.292-0.707,0.293c-0.259-0.001-0.509-0.096-0.707-0.293l-5.657-5.657
		c-0.197-0.198-0.292-0.448-0.293-0.707c0.001-0.259,0.096-0.509,0.293-0.707l1.414-1.414c0.584-0.583,0.88-1.357,0.879-2.121
		c0.001-0.764-0.295-1.538-0.879-2.121L8.629,0.879C8.045,0.295,7.272-0.001,6.507,0C5.743-0.001,4.969,0.295,4.386,0.879
		L1.557,3.707C0.489,4.761-0.01,6.103,0,7.439c0.031,2.706,1.723,5.385,3.751,7.939c2.043,2.543,4.507,4.928,6.292,6.714
		c1.786,1.785,4.171,4.249,6.714,6.292c2.554,2.028,5.233,3.72,7.939,3.751c1.336,0.01,2.677-0.489,3.732-1.557l2.829-2.828
		c0.584-0.583,0.88-1.357,0.879-2.121c0.001-0.765-0.295-1.538-0.879-2.121L25.599,17.849z M5.8,2.293
		C5.998,2.096,6.248,2.001,6.507,2c0.259,0.001,0.509,0.096,0.707,0.293l5.657,5.657c0.197,0.198,0.292,0.448,0.293,0.707
		c-0.001,0.259-0.096,0.509-0.293,0.707l-0.707,0.707L5.093,3L5.8,2.293z M27.013,29.163c-0.719,0.705-1.432,0.961-2.318,0.971
		c-1.785,0.031-4.287-1.359-6.686-3.31c-2.411-1.935-4.753-4.347-6.552-6.147c-1.8-1.799-4.211-4.141-6.147-6.552
		C3.36,11.726,1.97,9.224,2,7.439c0.01-0.886,0.266-1.598,0.971-2.318l0.707-0.707l7.214,7.214
		c-0.192,0.406-0.315,0.834-0.315,1.271c-0.001,0.764,0.295,1.538,0.879,2.121l5.657,5.657c0.583,0.584,1.357,0.88,2.121,0.879
		c0.437,0.001,0.865-0.123,1.271-0.315l7.214,7.214L27.013,29.163z M29.842,26.334l-0.707,0.707l-7.071-7.071l0.707-0.707
		c0.198-0.197,0.448-0.292,0.707-0.293c0.259,0.001,0.509,0.096,0.707,0.293l5.657,5.657c0.197,0.198,0.292,0.448,0.293,0.707
		C30.133,25.887,30.039,26.137,29.842,26.334z"/>
	<rect x="0.002" y="0" style="fill:none;" width="32" height="32"/>
</g>
<g id="Layer_1">
</g>
</svg>
