<?xml version="1.0" encoding="iso-8859-1"?>
<!-- Generator: Adobe Illustrator 19.1.0, SVG Export Plug-In . SVG Version: 6.00 Build 0)  -->
<svg version="1.1" id="Capa_1" xmlns="http://www.w3.org/2000/svg" xmlns:xlink="http://www.w3.org/1999/xlink" x="0px" y="0px"
	 viewBox="0 0 66 66" style="enable-background:new 0 0 66 66;" xml:space="preserve">
<g>
	<g id="group-20svg">
		<path id="path-1_12_" style="fill:#99746A;" d="M12.791,27.997C8.967,27.997,5,31.23,5,35.058v27.963h5v-3.002h51v3.002h5V35.058
			c0-3.827-2.063-7.061-5.887-7.061H12.791z"/>
		<path id="path-2_12_" style="fill:#E56A77;" d="M52,20.992H22V7.983h30V20.992z"/>
		<path id="path-3_12_" style="fill:#EDC951;" d="M5,47.917v3.096h61v-3.096c0-3.189-1.545-5.91-4.732-5.91H11.637
			C8.449,42.007,5,44.728,5,47.917z"/>
		<path id="path-4_12_" style="fill:#EDC951;" d="M41,40.136v1.871h21v-1.871C62,36.82,60.185,34,56.872,34h-9
			C44.559,34,41,36.82,41,40.136z"/>
		<path id="path-5_12_" style="fill:#EDC951;" d="M10,40.136v1.871h21v-1.871C31,36.82,29.185,34,25.872,34h-9
			C13.571,34,10,36.834,10,40.136z"/>
		<path id="path-6_11_" d="M62.5,61.02h-5c-0.828,0-1.5-0.672-1.5-1.501v-1.501H8v1.501c0,0.829-0.672,1.501-1.5,1.501h-5
			c-0.828,0-1.5-0.672-1.5-1.501V32.055c0-4.742,4.19-9.061,8.791-9.061h47.322c4.871,0,7.887,4.703,7.887,9.061v27.464
			C64,60.348,63.328,61.02,62.5,61.02z M59,58.018h2V32.055c0-2.914-1.868-6.059-4.887-6.059H8.791C5.868,25.996,3,28.997,3,32.055
			v25.963h2v-1.501c0-0.829,0.672-1.501,1.5-1.501h51c0.828,0,1.5,0.672,1.5,1.501V58.018z"/>
		<path id="path-7_11_" d="M62.5,50.012h-61c-0.828,0-1.5-0.672-1.5-1.501v-2.595c0-4.067,3.711-7.912,7.637-7.912h49.631
			c4.158,0,6.732,4.106,6.732,7.912v2.595C64,49.34,63.328,50.012,62.5,50.012z M3,47.01h58v-1.094c0-2.361-1.427-4.91-3.732-4.91
			H7.637C5.34,41.006,3,43.483,3,45.916V47.01z"/>
		<path id="path-8_10_" d="M58.5,41.006h-21c-0.828,0-1.5-0.672-1.5-1.501v-1.37c0-4.183,3.825-8.137,7.872-8.137h9
			c4.402,0,7.128,4.224,7.128,8.137v1.37C60,40.334,59.328,41.006,58.5,41.006z M39.002,38.004h17.996
			C56.941,35.563,55.298,33,52.872,33h-9C41.5,33,39.084,35.503,39.002,38.004z"/>
		<path id="path-9_10_" d="M27.5,41.006h-21c-0.828,0-1.5-0.672-1.5-1.501v-1.37c0-4.183,3.825-8.137,7.872-8.137h9
			c4.402,0,7.128,4.224,7.128,8.137v1.37C29,40.334,28.328,41.006,27.5,41.006z M8.002,38.004h17.996
			C25.941,35.563,24.298,33,21.872,33h-9C10.5,33,8.084,35.503,8.002,38.004z"/>
		<path id="path-10_10_" d="M48.5,18.99h-30c-0.828,0-1.5-0.673-1.5-1.501V4.481c0-0.829,0.672-1.501,1.5-1.501h30
			c0.828,0,1.5,0.672,1.5,1.501V17.49C50,18.318,49.328,18.99,48.5,18.99z M20,15.989h27V5.982H20V15.989z"/>
	</g>
</g>
<g>
</g>
<g>
</g>
<g>
</g>
<g>
</g>
<g>
</g>
<g>
</g>
<g>
</g>
<g>
</g>
<g>
</g>
<g>
</g>
<g>
</g>
<g>
</g>
<g>
</g>
<g>
</g>
<g>
</g>
</svg>
